# xmcd
#
# Track frame offsets: 
#        150
#        17815
#        34664
#        50934
#        70107
#        83497
#        101337
#        118807
#        135144
#        151138
#        168835
#        181009
#
# Disc length: 2671 seconds
#
# Revision: 2
# Processed by: cddbd v1.5.2PL0 Copyright (c) Steve Scherf et al.
# Submitted via: ExactAudioCopy v0.95b3
#
DISCID=880a6d0c
DTITLE=Groovehouse - Ébredj mellettem
DYEAR=2005
DGENRE=Dance
TTITLE0=Ébredj mellettem
TTITLE1=Mit ér neked?
TTITLE2=Szívvel - lélekkel
TTITLE3=Úgy, mint más
TTITLE4=Holnaptól
TTITLE5=Igazi volt
TTITLE6=Maradj még enyém
TTITLE7=Vágy
TTITLE8=Múlté a fájdalom
TTITLE9=Ébredj mellettem (Late Nite works)
TTITLE10=Valahol bús dal szól
TTITLE11=Szemeddel látsz...
EXTD=
EXTT0=
EXTT1=
EXTT2=
EXTT3=
EXTT4=
EXTT5=
EXTT6=
EXTT7=
EXTT8=
EXTT9=
EXTT10=
EXTT11=
PLAYORDER=
